<svg xmlns="http://www.w3.org/2000/svg" id="Layer_1" data-name="Layer 1" viewBox="0 0 382.56 640.97">
    <title>Trabzonspor logo - Brandlogos.net</title>
    <path d="M575.2,517.91c0-1.11,0-2.51,0-3.62V203.39s-33.51,26.35-93.86,8.11c-45.06-17.65-56-27.33-80.59-38.41-69-33.65-129.61-38.34-208,.9V536.26A117.5,117.5,0,0,0,194,552.41c8.58,85.81,91,152.76,191.11,152.07,101-.7,183.14-70.08,189.17-157.16C575.14,539.88,575.44,530.71,575.2,517.91Z" transform="translate(-192.72 -63.52)" style="fill:#5b1128"/>
    <path d="M398.63,382.43c-51.53,10.79-104.5,58.83-104.5,113.08,0,60.6,56.91,100.43,104.07,97.07,34.73-2.48,68.42-14.89,71-56.92,2-32.74-19.07-46.28-47.17-56.65-24.72-9.17-42.66-32.31-42.88-58.9-.08-14.27,6.48-29,19.45-37.68M575.2,355.77c-27.68,19.54-63.21,24.89-106.53,24.89a159.3,159.3,0,0,1-19-1.13c12.25,7,19,15.45,23.14,30.48-8.65-4-17.15-6.07-22.85-6.07-12.4-.07-24.07,8.4-23.57,21.23.36,8.25,6.56,15.59,15.78,19.33,21,8.39,42.37,14.67,61.83,26.45,38.7,23.63,46.56,52.76,46.56,77.17,0,31.74-15.29,67.14-48.79,94.78C474,665.79,436.9,682,385.56,683.16c-56.76,1.24-98.07-19.9-130.72-52.09-30.15-29.73-41-72.08-41-110.66,0-54.25,24.38-99.83,64.74-129.39,29.62-21.66,70.27-34.64,105-34.28-21-10-43.24-19.26-78.2-19.26-38.63,0-80.49,17.47-112.63,55.35V297.48c27.46-16.15,69.76-28.07,109.25-28.07,53.26,0,80,21.74,106.66,40.42,26.35,18.49,48.1,33.61,91.93,35.61,27.43,1.25,52.57-4.56,74.62-19.3v29.63Z" transform="translate(-192.72 -63.52)" style="fill:#76b7e6"/>
    <path d="M388.76,619.62l10.5.12-6.17,10.79c9.77-1.94,16.39,22.16-1.34,23-12.37-.06-12.14-14.54-9.67-19.77Zm2.18,17.79c-1.07,0-1.93,1.94-1.93,4.32s.86,4.32,1.93,4.32,1.93-1.94,1.93-4.32-.87-4.32-1.93-4.32" transform="translate(-192.72 -63.52)" style="fill:#fff"/>
    <polygon points="161.17 556.38 160.99 588.74 152.25 588.61 152.28 563.52 148.62 563.47 148.62 556.41 161.17 556.38" style="fill:#fff"/>
    <polygon points="212.42 556.4 212.29 564.14 222.25 563.95 211.04 588.53 221.26 588.79 233.87 556.31 212.42 556.4" style="fill:#fff"/>
    <path d="M367.66,641.38l-6.72,10.7,9.74.08,7.75-15.78c5.82-21.32-26-23.67-20.51-1,1.1,4.09,3.87,6.13,9.74,6m.24-15.13c1.07,0,1.93,1.94,1.93,4.32s-.86,4.32-1.93,4.32S366,633,366,630.57s.86-4.32,1.93-4.32" transform="translate(-192.72 -63.52)" style="fill:#fff"/>
    <path d="M559.57,208.69" transform="translate(-192.72 -63.52)" style="fill:none;stroke:#111c2c;stroke-miterlimit:10"/>
    <polygon points="191.25 0 201.9 29.99 233.87 30.97 208.74 50.22 217.59 81.08 191.25 63.22 164.9 81.08 173.78 50.25 148.62 30.97 180.59 30.01 191.25 0" style="fill:#d29d3f"/>
    <path d="M391.31,201.14a42.33,42.33,0,0,0-6.46-15.21l-.73,0a42.59,42.59,0,0,0-42,35.83,52.81,52.81,0,0,1,42.24-21.07A52.16,52.16,0,0,1,391.31,201.14Z" transform="translate(-192.72 -63.52)" style="fill:#fff"/>
    <path d="M385.56,206.06a52.8,52.8,0,0,0-44.19,23.85,42.49,42.49,0,0,0,3.35,15.15,42.57,42.57,0,0,1,38.65-24.72,42.13,42.13,0,0,1,7.14.61,42.64,42.64,0,0,0,1.5-11.2c0-1.12-.06-2.22-.14-3.32A54.83,54.83,0,0,0,385.56,206.06Z" transform="translate(-192.72 -63.52)" style="fill:#fff"/>
    <path d="M357.19,236.23a42.32,42.32,0,0,0-9.88,13.24c.12.21.23.43.36.64a42.59,42.59,0,0,0,52.13,18.27,52.94,52.94,0,0,1-42.61-32.15Z" transform="translate(-192.72 -63.52)" style="fill:#fff"/>
    <path d="M364.13,238.48A52.81,52.81,0,0,0,406.74,265a42.48,42.48,0,0,0,11.5-10.42,42.54,42.54,0,0,1-43.63-27.82A42.9,42.9,0,0,0,364.14,231c-1,.55-1.9,1.15-2.81,1.77A52.15,52.15,0,0,0,364.13,238.48Z" transform="translate(-192.72 -63.52)" style="fill:#fff"/>
    <path d="M403.66,248.38a42.23,42.23,0,0,0,16.36,2.3c.13-.21.27-.41.39-.62a42.58,42.58,0,0,0-9-54.49,52.77,52.77,0,0,1-3.7,47.05A53.6,53.6,0,0,1,403.66,248.38Z" transform="translate(-192.72 -63.52)" style="fill:#fff"/>
    <path d="M402.4,241.15A52.82,52.82,0,0,0,404.72,191,42.3,42.3,0,0,0,390,186.06a42.58,42.58,0,0,1,1.28,45.86,41.1,41.1,0,0,1-4.2,5.8,42.77,42.77,0,0,0,8.82,7c1,.58,1.93,1.1,2.92,1.59A53.18,53.18,0,0,0,402.4,241.15Z" transform="translate(-192.72 -63.52)" style="fill:#fff"/>
</svg>